<mxfile host="Electron" modified="2024-02-16T10:37:04.897Z" agent="Mozilla/5.0 (Windows NT 10.0; Win64; x64) AppleWebKit/537.36 (KHTML, like Gecko) draw.io/22.1.2 Chrome/114.0.5735.289 Electron/25.9.4 Safari/537.36" etag="UiBCqHJwAekK20QEM_k6" version="22.1.2" type="device">
  <diagram name="Page-1" id="Ha8s6_4_4nTsxysomdbX">
    <mxGraphModel dx="1548" dy="2064" grid="1" gridSize="10" guides="1" tooltips="1" connect="1" arrows="1" fold="1" page="1" pageScale="1" pageWidth="827" pageHeight="1169" math="0" shadow="0">
      <root>
        <mxCell id="0" />
        <mxCell id="1" parent="0" />
        <mxCell id="xZhcK2moglaW3ZBf0cYV-59" value="&lt;font style=&quot;font-size: 20px;&quot;&gt;Client Network&lt;/font&gt;" style="rounded=1;whiteSpace=wrap;html=1;strokeColor=#E188D0;strokeWidth=1;fontColor=#212121;fillColor=none;dashed=1;fontFamily=VK Sans Display;verticalAlign=top;spacing=10;fontStyle=1;arcSize=12;absoluteArcSize=1;" parent="1" vertex="1">
          <mxGeometry x="30" y="-760" width="890" height="600" as="geometry" />
        </mxCell>
        <mxCell id="xZhcK2moglaW3ZBf0cYV-75" value="" style="rounded=0;whiteSpace=wrap;html=1;hachureGap=4;fontFamily=VK Sans Display;fontSource=https%3A%2F%2Ffonts.googleapis.com%2Fcss%3Ffamily%3DArchitects%2BDaughter;fontSize=12;fontColor=#212121;fillColor=none;strokeWidth=0;movable=1;resizable=1;rotatable=1;deletable=1;editable=1;locked=0;connectable=1;" parent="1" vertex="1">
          <mxGeometry y="-790" width="1650" height="710" as="geometry" />
        </mxCell>
        <mxCell id="xZhcK2moglaW3ZBf0cYV-58" value="&lt;font style=&quot;font-size: 20px;&quot;&gt;VK Cloud Network&lt;/font&gt;" style="rounded=1;whiteSpace=wrap;html=1;strokeColor=#9FB5FF;strokeWidth=1;fontColor=#212121;fillColor=none;dashed=1;fontFamily=VK Sans Display;verticalAlign=top;spacing=10;fontStyle=1;arcSize=12;absoluteArcSize=1;" parent="1" vertex="1">
          <mxGeometry x="1030" y="-760" width="588" height="600" as="geometry" />
        </mxCell>
        <mxCell id="aJi8j09or2nH_K_PCSjf-8" value="&lt;font style=&quot;font-size: 20px;&quot;&gt;clientVM&lt;br style=&quot;&quot;&gt;172.16.0.4&lt;/font&gt;" style="text;html=1;strokeColor=none;fillColor=none;align=center;verticalAlign=middle;whiteSpace=wrap;rounded=0;fontSize=18;fontFamily=VK Sans Display;fontColor=#212121;" parent="1" vertex="1">
          <mxGeometry x="66" y="-230" width="60" height="30" as="geometry" />
        </mxCell>
        <mxCell id="aJi8j09or2nH_K_PCSjf-9" value="&lt;font style=&quot;font-size: 20px;&quot;&gt;clientSubnet&lt;br&gt;172.16.0.0/29&lt;/font&gt;" style="text;html=1;strokeColor=none;fillColor=none;align=center;verticalAlign=middle;whiteSpace=wrap;rounded=0;fontSize=12;fontFamily=VK Sans Display;fontColor=#212121;" parent="1" vertex="1">
          <mxGeometry x="405" y="-240" width="110" height="50" as="geometry" />
        </mxCell>
        <mxCell id="xZhcK2moglaW3ZBf0cYV-33" style="edgeStyle=none;shape=connector;rounded=1;orthogonalLoop=1;jettySize=auto;html=1;labelBackgroundColor=#FFFFFF;strokeColor=#7C8A9A;strokeWidth=2;fontFamily=VK Sans Display;fontSize=12;fontColor=#212121;startArrow=none;startFill=0;endArrow=none;endFill=0;entryX=0;entryY=0.5;entryDx=0;entryDy=0;exitX=1;exitY=0.5;exitDx=0;exitDy=0;" parent="1" source="xZhcK2moglaW3ZBf0cYV-23" target="xZhcK2moglaW3ZBf0cYV-21" edge="1">
          <mxGeometry relative="1" as="geometry">
            <mxPoint x="98" y="276" as="sourcePoint" />
            <mxPoint x="194.86400000000003" y="275.7000000000003" as="targetPoint" />
          </mxGeometry>
        </mxCell>
        <mxCell id="xZhcK2moglaW3ZBf0cYV-23" value="" style="shape=image;verticalLabelPosition=bottom;labelBackgroundColor=default;verticalAlign=top;aspect=fixed;imageAspect=0;image=data:image/svg+xml,PHN2ZyB4bWxucz0iaHR0cDovL3d3dy53My5vcmcvMjAwMC9zdmciIGZpbGw9Im5vbmUiIHZpZXdCb3g9IjAgMCAyOCAyOCIgaGVpZ2h0PSIyOCIgd2lkdGg9IjI4Ij4mI3hhOzxwYXRoIGZpbGw9IiMwMDc3RkYiIGQ9Ik0yLjkxNjY2IDE0QzIuOTE2NjYgOC43NzUyNiAyLjkxNjY2IDYuMTYyODkgNC41Mzk3NyA0LjUzOTc3QzYuMTYyODkgMi45MTY2NiA4Ljc3NTI2IDIuOTE2NjYgMTQgMi45MTY2NkMxOS4yMjQ3IDIuOTE2NjYgMjEuODM3MSAyLjkxNjY2IDIzLjQ2MDIgNC41Mzk3N0MyNS4wODMzIDYuMTYyODkgMjUuMDgzMyA4Ljc3NTI2IDI1LjA4MzMgMTRDMjUuMDgzMyAxNS4xNjI2IDI1LjA2MDIgMTYuNDc3NiAyNS4wMzA4IDE3LjUzOThDMjUuMDE1OSAxOC4wNzU5IDI0LjU3NTYgMTguNSAyNC4wMzkzIDE4LjVDMjMuNDczMyAxOC41IDIzLjAxNDkgMTguMDI5MiAyMy4wMTIxIDE3LjQ2MzFDMjMuMDExMSAxNy4yNTUxIDIzLjAwOTIgMTcuMDM4NiAyMy4wMDczIDE2LjgyM0MyMy4wMDQgMTYuNDM5MiAyMy4wMDA3IDE2LjA1ODMgMjMuMDAyMyAxNS43MzM0QzIzLjAwNDIgMTUuMzUwMyAyMi42OTM2IDE1LjAzOTEgMjIuMzEwNiAxNS4wMzkxSDUuNjg5MzlDNS4zMDYzNCAxNS4wMzkxIDQuOTk1NzcgMTUuMzUwMyA0Ljk5NzY4IDE1LjczMzRDNS4wMDY0MiAxNy40ODQzIDUuMDQxMjIgMTguNzc4IDUuMTc5MTQgMTkuODAzOEM1LjM1MTA1IDIxLjA4MjQgNS42NDgxNCAyMS42Mjk3IDYuMDA5MjMgMjEuOTkwN0M2LjM3MDMxIDIyLjM1MTggNi45MTc1NSAyMi42NDg5IDguMTk2MTggMjIuODIwOEM4LjQ0NzY1IDIyLjg1NDYgOC43MTUyMSAyMi44ODIzIDkuMDAxNjUgMjIuOTA0OEM5LjU1ODQxIDIyLjk0ODYgMTAgMjMuNDAzMSAxMCAyMy45NjE2QzEwIDI0LjU1MTEgOS41MDk0IDI1LjAyNjQgOC45MjE1IDI0Ljk4MjZDNi44NjE1MyAyNC44Mjg4IDUuNTIwMTggMjQuNDQwNiA0LjUzOTc3IDIzLjQ2MDJDMi45MTY2NiAyMS44MzcxIDIuOTE2NjYgMTkuMjI0NyAyLjkxNjY2IDE0Wk0yMy4wMDIzIDEyLjI2NjZDMjMuMDA0MiAxMi42NDk2IDIyLjY5MzYgMTIuOTYwOSAyMi4zMTA2IDEyLjk2MDlINS42ODkzOUM1LjMwNjM0IDEyLjk2MDkgNC45OTU3NyAxMi42NDk2IDQuOTk3NjggMTIuMjY2NkM1LjAwNjQyIDEwLjUxNTYgNS4wNDEyMiA5LjIyMjAxIDUuMTc5MTQgOC4xOTYxOEM1LjM1MTA1IDYuOTE3NTUgNS42NDgxNCA2LjM3MDMxIDYuMDA5MjMgNi4wMDkyM0M2LjM3MDMxIDUuNjQ4MTQgNi45MTc1NSA1LjM1MTA1IDguMTk2MTggNS4xNzkxNEM5LjUzNDU5IDQuOTk5MiAxMS4zMjg5IDQuOTk0NzggMTQgNC45OTQ3OEMxNi42NzExIDQuOTk0NzggMTguNDY1NCA0Ljk5OTIgMTkuODAzOCA1LjE3OTE0QzIxLjA4MjQgNS4zNTEwNSAyMS42Mjk3IDUuNjQ4MTQgMjEuOTkwNyA2LjAwOTIzQzIyLjM1MTggNi4zNzAzMSAyMi42NDg5IDYuOTE3NTUgMjIuODIwOCA4LjE5NjE4QzIyLjk1ODggOS4yMjIwMSAyMi45OTM2IDEwLjUxNTYgMjMuMDAyMyAxMi4yNjY2Wk0xNS4xMjQgMjQuNjU4N0wxNi45MTQyIDIwLjQ0MjlDMTYuOTcyNSAyMC4zMTE2IDE3LjA2NzcgMjAuMTUwNSAxNy4yMzIzIDIwLjA0OTZDMTcuMzgzMiAxOS45NTUxIDE3LjU1MTMgMTkuOTI2MyAxNy43MDMyIDE5LjkyNjNDMTcuODM4OCAxOS45MjYzIDE3Ljk4NCAxOS45NTEgMTguMTE5NCAyMC4wMjM3QzE4LjI1NTkgMjAuMDk2OSAxOC4zNTkyIDIwLjIwNjYgMTguNDI3NCAyMC4zMzgxQzE4LjU2OTkgMjAuNTk1MyAxOC41NTExIDIwLjg3MSAxOC40NDA4IDIxLjExM0wxNS45MjI3IDI2Ljg4OTJDMTUuODU4NCAyNy4wMzYxIDE1Ljc2MjEgMjcuMTcwNSAxNS42MjYyIDI3LjI3MjRMMTUuNjIxMiAyNy4yNzYxQzE1LjQ2OTYgMjcuMzg2NCAxNS4yOTYyIDI3LjQyNTYgMTUuMTMyNSAyNy40MjU2QzE0Ljk2NDYgMjcuNDI1NiAxNC43OTgxIDI3LjM4MDkgMTQuNjUxNyAyNy4yNzgxQzE0LjUwODYgMjcuMTc3NiAxNC40MTA4IDI3LjA0MDEgMTQuMzQ1IDI2Ljg5NTJMMTQuMzQyNCAyNi44ODk2TDExLjg0NDcgMjEuMTc4QzExLjc0MTggMjAuOTI4MiAxMS42OTIxIDIwLjYyOSAxMS44MzIxIDIwLjM0ODhDMTEuOTg2NiAyMC4wMzk5IDEyLjI4MzMgMTkuOTI2MyAxMi41NzAzIDE5LjkyNjNDMTIuNzMzIDE5LjkyNjMgMTIuOTAxNCAxOS45NjI4IDEzLjA1MjMgMjAuMDYwNEMxMy4yMDQ1IDIwLjE1ODYgMTMuMzA3MyAyMC4yOTg0IDEzLjM3MTQgMjAuNDUxMkwxMy4zNzE4IDIwLjQ1MjFMMTUuMTI0IDI0LjY1ODdaTTIxLjI4OTUgMjQuMjEwMVYyNi41NTc0QzIxLjI4OTUgMjYuNzkwNCAyMS4yMDUzIDI3LjAwNTEgMjEuMDM3MSAyNy4xNzMzQzIwLjg2ODkgMjcuMzQxNSAyMC42NTQzIDI3LjQyNTYgMjAuNDIxMiAyNy40MjU2QzIwLjE4ODIgMjcuNDI1NiAxOS45NzM1IDI3LjM0MTUgMTkuODA1MyAyNy4xNzMzQzE5LjYzNzEgMjcuMDA1MSAxOS41NTMgMjYuNzkwNCAxOS41NTMgMjYuNTU3NFYyMC43OTQ2QzE5LjU1MyAyMC41NjQxIDE5LjYzMiAyMC4zNDMgMTkuODEwNCAyMC4xNzM1QzE5Ljk3NzkgMjAuMDA4OCAyMC4xOTA1IDE5LjkyNjMgMjAuNDIxMiAxOS45MjYzQzIwLjc1NzcgMTkuOTI2MyAyMS4wMjI3IDIwLjA5OTcgMjEuMTgyMyAyMC4zNzkxTDIxLjE4ODIgMjAuMzg5NUwyMy4zMzQyIDI0LjY4ODNMMjUuNDI0NCAyMC4zOTE0TDI1LjQzMTQgMjAuMzc5MUMyNS41OTExIDIwLjA5OTcgMjUuODU2MSAxOS45MjYzIDI2LjE5MjUgMTkuOTI2M0MyNi40MjMyIDE5LjkyNjMgMjYuNjM1OSAyMC4wMDg4IDI2LjgwMzMgMjAuMTczNkMyNi45ODE4IDIwLjM0MyAyNy4wNjA4IDIwLjU2NDEgMjcuMDYwOCAyMC43OTQ2VjI2LjU1NzRDMjcuMDYwOCAyNi43OTcxIDI2Ljk2ODggMjcuMDEyOCAyNi43OTUxIDI3LjE3ODFDMjYuNjMxOCAyNy4zMzkgMjYuNDIzNiAyNy40MjU2IDI2LjE5MjUgMjcuNDI1NkMyNS45NTk1IDI3LjQyNTYgMjUuNzQ0OCAyNy4zNDE1IDI1LjU3NjYgMjcuMTczM0MyNS40MDg0IDI3LjAwNTEgMjUuMzI0MyAyNi43OTA0IDI1LjMyNDMgMjYuNTU3NFYyNC4xNTg1TDI0LjA2MDUgMjYuNzM0M0wyNC4wNDYyIDI2Ljc1NjJDMjMuODgxMiAyNy4wMDg1IDIzLjYyNzEgMjcuMTcwMiAyMy4zMDY5IDI3LjE3MDJDMjMuMTQ0MyAyNy4xNzAyIDIyLjk4MDQgMjcuMTMxMiAyMi44MzM0IDI3LjAzNjJDMjIuNjg4MyAyNi45NDI1IDIyLjU4NiAyNi44MTE1IDIyLjUxNjUgMjYuNjY4OEwyMS4yODk1IDI0LjIxMDFaIiBjbGlwLXJ1bGU9ImV2ZW5vZGQiIGZpbGwtcnVsZT0iZXZlbm9kZCIvPiYjeGE7PC9zdmc+;" parent="1" vertex="1">
          <mxGeometry x="66" y="-310" width="60" height="60" as="geometry" />
        </mxCell>
        <mxCell id="xZhcK2moglaW3ZBf0cYV-61" value="&lt;font color=&quot;#efae98&quot; style=&quot;font-size: 20px;&quot;&gt;192.0.2.200&lt;/font&gt;" style="text;html=1;strokeColor=none;fillColor=none;align=center;verticalAlign=middle;whiteSpace=wrap;rounded=0;fontSize=20;fontFamily=VK Sans Display;fontColor=#212121;rotation=306;" parent="1" vertex="1">
          <mxGeometry x="850" y="-340" width="115" height="42" as="geometry" />
        </mxCell>
        <mxCell id="xZhcK2moglaW3ZBf0cYV-26" value="&lt;font style=&quot;font-size: 20px;&quot;&gt;vkcloudVM&lt;br style=&quot;font-size: 20px;&quot;&gt;10.0.0.4&lt;/font&gt;" style="text;html=1;strokeColor=none;fillColor=none;align=center;verticalAlign=middle;whiteSpace=wrap;rounded=0;fontSize=20;fontFamily=VK Sans Display;fontColor=#212121;" parent="1" vertex="1">
          <mxGeometry x="1481" y="-245" width="120" height="60" as="geometry" />
        </mxCell>
        <mxCell id="xZhcK2moglaW3ZBf0cYV-21" value="" style="shape=image;verticalLabelPosition=bottom;labelBackgroundColor=default;verticalAlign=top;aspect=fixed;imageAspect=0;image=data:image/svg+xml,PHN2ZyB4bWxucz0iaHR0cDovL3d3dy53My5vcmcvMjAwMC9zdmciIGZpbGw9Im5vbmUiIHZpZXdCb3g9IjAgMCAyOCAyOCIgaGVpZ2h0PSIyOCIgd2lkdGg9IjI4Ij4mI3hhOzxwYXRoIGZpbGw9IiMwMDc3RkYiIGQ9Ik0yNS4wODMzIDcuMDcyOTRDMjUuMDgzMyA5LjM2ODM3IDIzLjIyMjUgMTEuMjI5MiAyMC45MjcxIDExLjIyOTJDMjAuMzcwOSAxMS4yMjkyIDE5Ljg0MDIgMTEuMTE5OSAxOS4zNTU0IDEwLjkyMTdDMTkuMDUxNyAxMC43OTc2IDE4LjY5MzQgMTAuODQ5MSAxOC40NzQ3IDExLjA5MzdMMTYuMjgzMSAxMy41NDQ2QzE2LjA0OCAxMy44MDc1IDE2LjA0OCAxNC4yMDUxIDE2LjI4MzEgMTQuNDY4TDE4LjQ2NiAxNi45MDk5QzE4LjY4NSAxNy4xNTQ5IDE5LjA0NDEgMTcuMjA2MiAxOS4zNDgyIDE3LjA4MTNDMTkuODM1IDE2Ljg4MTIgMjAuMzY4MSAxNi43NzA5IDIwLjkyNzEgMTYuNzcwOUMyMy4yMjI1IDE2Ljc3MDkgMjUuMDgzMyAxOC42MzE3IDI1LjA4MzMgMjAuOTI3MUMyNS4wODMzIDIzLjIyMjUgMjMuMjIyNSAyNS4wODM0IDIwLjkyNzEgMjUuMDgzNEMxOC42MzE2IDI1LjA4MzQgMTYuNzcwOCAyMy4yMjI1IDE2Ljc3MDggMjAuOTI3MUMxNi43NzA4IDIwLjMyNzYgMTYuODk3OCAxOS43NTc3IDE3LjEyNjIgMTkuMjQyOUMxNy4yNDk1IDE4Ljk2NSAxNy4yMjM1IDE4LjYzNSAxNy4wMjA2IDE4LjQwODZMMTQuMjA2NSAxNS4yNjk0QzE0LjA3NTEgMTUuMTIyOCAxMy44ODc1IDE1LjAzOTEgMTMuNjkwNyAxNS4wMzkxSDExLjYzNTJDMTEuMzE5MSAxNS4wMzkxIDExLjA0ODggMTUuMjU1OCAxMC45MzA5IDE1LjU0OUMxMC4zMTY3IDE3LjA3NzMgOC44MjA4MyAxOC4xNTYzIDcuMDcyOTEgMTguMTU2M0M0Ljc3NzQ3IDE4LjE1NjMgMi45MTY2NiAxNi4yOTU1IDIuOTE2NjYgMTRDMi45MTY2NiAxMS43MDQ2IDQuNzc3NDcgOS44NDM3NyA3LjA3MjkxIDkuODQzNzdDOC44MjA4MyA5Ljg0Mzc3IDEwLjMxNjcgMTAuOTIyOCAxMC45MzA5IDEyLjQ1MUMxMS4wNDg4IDEyLjc0NDMgMTEuMzE5MSAxMi45NjEgMTEuNjM1MiAxMi45NjFIMTMuNjkxNEMxMy44ODc4IDEyLjk2MSAxNC4wNzUgMTIuODc3NiAxNC4yMDY0IDEyLjczMTVMMTcuMDIzMiA5LjYwMDE4QzE3LjIyNzIgOS4zNzM0MiAxNy4yNTMzIDkuMDQyMTIgMTcuMTI5MSA4Ljc2MzU0QzE2Ljg5ODggOC4yNDcwNSAxNi43NzA4IDcuNjc0OTQgMTYuNzcwOCA3LjA3Mjk0QzE2Ljc3MDggNC43Nzc1IDE4LjYzMTYgMi45MTY2OSAyMC45MjcxIDIuOTE2NjlDMjMuMjIyNSAyLjkxNjY5IDI1LjA4MzMgNC43Nzc1IDI1LjA4MzMgNy4wNzI5NFpNMjMuMDA1MiA3LjA3Mjk0QzIzLjAwNTIgOC4yMjA2NSAyMi4wNzQ4IDkuMTUxMDYgMjAuOTI3MSA5LjE1MTA2QzE5Ljc3OTQgOS4xNTEwNiAxOC44NDg5IDguMjIwNjUgMTguODQ4OSA3LjA3Mjk0QzE4Ljg0ODkgNS45MjUyMiAxOS43Nzk0IDQuOTk0ODEgMjAuOTI3MSA0Ljk5NDgxQzIyLjA3NDggNC45OTQ4MSAyMy4wMDUyIDUuOTI1MjIgMjMuMDA1MiA3LjA3Mjk0Wk05LjE1MTAzIDE0QzkuMTUxMDMgMTUuMTQ3NyA4LjIyMDYyIDE2LjA3ODEgNy4wNzI5MSAxNi4wNzgxQzUuOTI1MTkgMTYuMDc4MSA0Ljk5NDc4IDE1LjE0NzcgNC45OTQ3OCAxNEM0Ljk5NDc4IDEyLjg1MjMgNS45MjUxOSAxMS45MjE5IDcuMDcyOTEgMTEuOTIxOUM4LjIyMDYyIDExLjkyMTkgOS4xNTEwMyAxMi44NTIzIDkuMTUxMDMgMTRaTTIwLjkyNzEgMjMuMDA1MkMyMi4wNzQ4IDIzLjAwNTIgMjMuMDA1MiAyMi4wNzQ4IDIzLjAwNTIgMjAuOTI3MUMyMy4wMDUyIDE5Ljc3OTQgMjIuMDc0OCAxOC44NDkgMjAuOTI3MSAxOC44NDlDMTkuNzc5NCAxOC44NDkgMTguODQ4OSAxOS43Nzk0IDE4Ljg0ODkgMjAuOTI3MUMxOC44NDg5IDIyLjA3NDggMTkuNzc5NCAyMy4wMDUyIDIwLjkyNzEgMjMuMDA1MloiIGNsaXAtcnVsZT0iZXZlbm9kZCIgZmlsbC1ydWxlPSJldmVub2RkIi8+JiN4YTs8L3N2Zz4=;" parent="1" vertex="1">
          <mxGeometry x="430" y="-310" width="60" height="60" as="geometry" />
        </mxCell>
        <mxCell id="xZhcK2moglaW3ZBf0cYV-30" style="edgeStyle=none;shape=connector;rounded=1;orthogonalLoop=1;jettySize=auto;html=1;labelBackgroundColor=#FFFFFF;strokeColor=#7C8A9A;strokeWidth=2;fontFamily=VK Sans Display;fontSize=12;fontColor=#212121;startArrow=none;startFill=0;endArrow=none;endFill=0;entryX=0.5;entryY=0;entryDx=0;entryDy=0;" parent="1" target="xZhcK2moglaW3ZBf0cYV-21" edge="1">
          <mxGeometry relative="1" as="geometry">
            <mxPoint x="460" y="-590" as="sourcePoint" />
            <mxPoint x="218" y="250" as="targetPoint" />
          </mxGeometry>
        </mxCell>
        <mxCell id="xZhcK2moglaW3ZBf0cYV-31" value="&lt;font style=&quot;font-size: 20px;&quot;&gt;172.16.0.1&lt;/font&gt;" style="edgeLabel;html=1;align=center;verticalAlign=middle;resizable=0;points=[];fontSize=12;fontFamily=VK Sans Display;fontColor=#212121;textOpacity=70;" parent="xZhcK2moglaW3ZBf0cYV-30" vertex="1" connectable="0">
          <mxGeometry x="0.0057" relative="1" as="geometry">
            <mxPoint as="offset" />
          </mxGeometry>
        </mxCell>
        <mxCell id="xZhcK2moglaW3ZBf0cYV-32" style="edgeStyle=none;shape=connector;rounded=1;orthogonalLoop=1;jettySize=auto;html=1;labelBackgroundColor=#FFFFFF;strokeColor=#7C8A9A;strokeWidth=2;fontFamily=VK Sans Display;fontSize=12;fontColor=#212121;startArrow=none;startFill=0;endArrow=none;endFill=0;entryX=0;entryY=0.5;entryDx=0;entryDy=0;exitX=1;exitY=0.5;exitDx=0;exitDy=0;" parent="1" source="xZhcK2moglaW3ZBf0cYV-21" edge="1">
          <mxGeometry relative="1" as="geometry">
            <mxPoint x="238" y="274" as="sourcePoint" />
            <mxPoint x="795" y="-280" as="targetPoint" />
          </mxGeometry>
        </mxCell>
        <mxCell id="xZhcK2moglaW3ZBf0cYV-35" style="edgeStyle=orthogonalEdgeStyle;shape=connector;rounded=1;orthogonalLoop=1;jettySize=auto;html=1;labelBackgroundColor=#FFFFFF;strokeColor=#7C8A9A;strokeWidth=2;fontFamily=VK Sans Display;fontSize=12;fontColor=#212121;startArrow=none;startFill=0;endArrow=open;endFill=0;dashed=1;curved=1;exitX=1;exitY=0.5;exitDx=0;exitDy=0;" parent="1" edge="1">
          <mxGeometry relative="1" as="geometry">
            <mxPoint x="490" y="-620" as="sourcePoint" />
            <mxPoint x="825" y="-310" as="targetPoint" />
          </mxGeometry>
        </mxCell>
        <mxCell id="xZhcK2moglaW3ZBf0cYV-41" value="&lt;font style=&quot;font-size: 20px;&quot;&gt;static route&lt;br style=&quot;&quot;&gt;10.0.0.0/29&lt;br style=&quot;&quot;&gt;via 172.16.0.5&lt;/font&gt;" style="edgeLabel;html=1;align=center;verticalAlign=middle;resizable=0;points=[];fontSize=16;fontFamily=VK Sans Display;fontColor=#212121;textOpacity=70;" parent="xZhcK2moglaW3ZBf0cYV-35" vertex="1" connectable="0">
          <mxGeometry x="0.2435" y="-26" relative="1" as="geometry">
            <mxPoint x="-39" y="27" as="offset" />
          </mxGeometry>
        </mxCell>
        <mxCell id="xZhcK2moglaW3ZBf0cYV-56" style="edgeStyle=none;shape=connector;rounded=1;orthogonalLoop=1;jettySize=auto;html=1;exitX=1;exitY=0.5;exitDx=0;exitDy=0;labelBackgroundColor=#FFFFFF;strokeColor=#EFAE98;strokeWidth=4;fontFamily=VK Sans Display;fontSize=12;fontColor=#212121;startArrow=none;startFill=0;endArrow=none;endFill=0;targetPerimeterSpacing=0;sourcePerimeterSpacing=0;endSize=6;startSize=6;entryX=0;entryY=0.5;entryDx=0;entryDy=0;" parent="1" edge="1">
          <mxGeometry relative="1" as="geometry">
            <mxPoint x="855" y="-280" as="sourcePoint" />
            <mxPoint x="1101" y="-620" as="targetPoint" />
          </mxGeometry>
        </mxCell>
        <mxCell id="xZhcK2moglaW3ZBf0cYV-57" value="&lt;font style=&quot;font-size: 20px;&quot;&gt;VPN TUNNEL&lt;/font&gt;" style="edgeLabel;html=1;align=center;verticalAlign=middle;resizable=0;points=[];fontSize=20;fontFamily=VK Sans Display;fontColor=#212121;fontStyle=1;textOpacity=70;" parent="xZhcK2moglaW3ZBf0cYV-56" vertex="1" connectable="0">
          <mxGeometry x="-0.1165" y="2" relative="1" as="geometry">
            <mxPoint x="7" y="-19" as="offset" />
          </mxGeometry>
        </mxCell>
        <mxCell id="xZhcK2moglaW3ZBf0cYV-48" style="edgeStyle=none;shape=connector;rounded=1;orthogonalLoop=1;jettySize=auto;html=1;exitX=0;exitY=0;exitDx=0;exitDy=0;entryX=0;entryY=1;entryDx=0;entryDy=0;labelBackgroundColor=#FFFFFF;strokeColor=#7C8A9A;strokeWidth=2;fontFamily=VK Sans Display;fontSize=12;fontColor=#212121;startArrow=none;startFill=0;endArrow=none;endFill=0;" parent="1" source="aJi8j09or2nH_K_PCSjf-6" edge="1">
          <mxGeometry relative="1" as="geometry">
            <mxPoint x="1101" y="-590" as="targetPoint" />
          </mxGeometry>
        </mxCell>
        <mxCell id="xZhcK2moglaW3ZBf0cYV-50" value="&lt;font style=&quot;font-size: 20px;&quot;&gt;10.0.0.1&lt;/font&gt;" style="edgeLabel;html=1;align=center;verticalAlign=middle;resizable=0;points=[];fontSize=20;fontFamily=VK Sans Display;fontColor=#212121;textOpacity=70;" parent="xZhcK2moglaW3ZBf0cYV-48" vertex="1" connectable="0">
          <mxGeometry x="0.0811" relative="1" as="geometry">
            <mxPoint y="-24" as="offset" />
          </mxGeometry>
        </mxCell>
        <mxCell id="xZhcK2moglaW3ZBf0cYV-49" style="edgeStyle=none;shape=connector;rounded=1;orthogonalLoop=1;jettySize=auto;html=1;exitX=1;exitY=1;exitDx=0;exitDy=0;entryX=1;entryY=0;entryDx=0;entryDy=0;labelBackgroundColor=#FFFFFF;strokeColor=#7C8A9A;strokeWidth=2;fontFamily=VK Sans Display;fontSize=12;fontColor=#212121;startArrow=none;startFill=0;endArrow=none;endFill=0;" parent="1" target="aJi8j09or2nH_K_PCSjf-6" edge="1">
          <mxGeometry relative="1" as="geometry">
            <mxPoint x="1161" y="-590" as="sourcePoint" />
          </mxGeometry>
        </mxCell>
        <mxCell id="xZhcK2moglaW3ZBf0cYV-51" value="&lt;font style=&quot;font-size: 20px;&quot;&gt;10.0.0.5&lt;br style=&quot;font-size: 20px;&quot;&gt;(SNAT)&lt;/font&gt;" style="edgeLabel;html=1;align=center;verticalAlign=middle;resizable=0;points=[];fontSize=20;fontFamily=VK Sans Display;fontColor=#212121;textOpacity=70;" parent="xZhcK2moglaW3ZBf0cYV-49" vertex="1" connectable="0">
          <mxGeometry x="0.0406" y="1" relative="1" as="geometry">
            <mxPoint x="-1" y="19" as="offset" />
          </mxGeometry>
        </mxCell>
        <mxCell id="xZhcK2moglaW3ZBf0cYV-81" style="edgeStyle=orthogonalEdgeStyle;shape=connector;rounded=1;orthogonalLoop=1;jettySize=auto;html=1;exitX=1;exitY=0.25;exitDx=0;exitDy=0;entryX=1;entryY=0.5;entryDx=0;entryDy=0;labelBackgroundColor=#FFFFFF;strokeColor=#7C8A9A;strokeWidth=2;fontFamily=VK Sans Display;fontSize=12;fontColor=#212121;startArrow=none;startFill=0;endArrow=open;endFill=0;curved=1;dashed=1;" parent="1" source="aJi8j09or2nH_K_PCSjf-6" edge="1">
          <mxGeometry relative="1" as="geometry">
            <Array as="points">
              <mxPoint x="1420" y="-295" />
              <mxPoint x="1420" y="-620" />
            </Array>
            <mxPoint x="1161" y="-620" as="targetPoint" />
          </mxGeometry>
        </mxCell>
        <mxCell id="xZhcK2moglaW3ZBf0cYV-82" value="&lt;font style=&quot;font-size: 20px;&quot;&gt;static route&lt;br style=&quot;border-color: var(--border-color);&quot;&gt;&lt;span style=&quot;border-color: var(--border-color);&quot;&gt;172.16.0.0/29&lt;/span&gt;&lt;br style=&quot;border-color: var(--border-color);&quot;&gt;&lt;span style=&quot;border-color: var(--border-color);&quot;&gt;via 10.0.0.5&lt;/span&gt;&lt;/font&gt;" style="edgeLabel;html=1;align=center;verticalAlign=middle;resizable=0;points=[];fontSize=12;fontFamily=VK Sans Display;fontColor=#212121;textOpacity=70;" parent="xZhcK2moglaW3ZBf0cYV-81" vertex="1" connectable="0">
          <mxGeometry x="0.0252" y="2" relative="1" as="geometry">
            <mxPoint x="-3" y="-62" as="offset" />
          </mxGeometry>
        </mxCell>
        <mxCell id="aJi8j09or2nH_K_PCSjf-6" value="" style="shape=image;verticalLabelPosition=bottom;labelBackgroundColor=default;verticalAlign=top;aspect=fixed;imageAspect=0;image=data:image/svg+xml,PHN2ZyB4bWxucz0iaHR0cDovL3d3dy53My5vcmcvMjAwMC9zdmciIGZpbGw9Im5vbmUiIHZpZXdCb3g9IjAgMCAyOCAyOCIgaGVpZ2h0PSIyOCIgd2lkdGg9IjI4Ij4mI3hhOzxwYXRoIGZpbGw9IiMwMDc3RkYiIGQ9Ik0yNS4wODMzIDcuMDcyOTRDMjUuMDgzMyA5LjM2ODM3IDIzLjIyMjUgMTEuMjI5MiAyMC45MjcxIDExLjIyOTJDMjAuMzcwOSAxMS4yMjkyIDE5Ljg0MDIgMTEuMTE5OSAxOS4zNTU0IDEwLjkyMTdDMTkuMDUxNyAxMC43OTc2IDE4LjY5MzQgMTAuODQ5MSAxOC40NzQ3IDExLjA5MzdMMTYuMjgzMSAxMy41NDQ2QzE2LjA0OCAxMy44MDc1IDE2LjA0OCAxNC4yMDUxIDE2LjI4MzEgMTQuNDY4TDE4LjQ2NiAxNi45MDk5QzE4LjY4NSAxNy4xNTQ5IDE5LjA0NDEgMTcuMjA2MiAxOS4zNDgyIDE3LjA4MTNDMTkuODM1IDE2Ljg4MTIgMjAuMzY4MSAxNi43NzA5IDIwLjkyNzEgMTYuNzcwOUMyMy4yMjI1IDE2Ljc3MDkgMjUuMDgzMyAxOC42MzE3IDI1LjA4MzMgMjAuOTI3MUMyNS4wODMzIDIzLjIyMjUgMjMuMjIyNSAyNS4wODM0IDIwLjkyNzEgMjUuMDgzNEMxOC42MzE2IDI1LjA4MzQgMTYuNzcwOCAyMy4yMjI1IDE2Ljc3MDggMjAuOTI3MUMxNi43NzA4IDIwLjMyNzYgMTYuODk3OCAxOS43NTc3IDE3LjEyNjIgMTkuMjQyOUMxNy4yNDk1IDE4Ljk2NSAxNy4yMjM1IDE4LjYzNSAxNy4wMjA2IDE4LjQwODZMMTQuMjA2NSAxNS4yNjk0QzE0LjA3NTEgMTUuMTIyOCAxMy44ODc1IDE1LjAzOTEgMTMuNjkwNyAxNS4wMzkxSDExLjYzNTJDMTEuMzE5MSAxNS4wMzkxIDExLjA0ODggMTUuMjU1OCAxMC45MzA5IDE1LjU0OUMxMC4zMTY3IDE3LjA3NzMgOC44MjA4MyAxOC4xNTYzIDcuMDcyOTEgMTguMTU2M0M0Ljc3NzQ3IDE4LjE1NjMgMi45MTY2NiAxNi4yOTU1IDIuOTE2NjYgMTRDMi45MTY2NiAxMS43MDQ2IDQuNzc3NDcgOS44NDM3NyA3LjA3MjkxIDkuODQzNzdDOC44MjA4MyA5Ljg0Mzc3IDEwLjMxNjcgMTAuOTIyOCAxMC45MzA5IDEyLjQ1MUMxMS4wNDg4IDEyLjc0NDMgMTEuMzE5MSAxMi45NjEgMTEuNjM1MiAxMi45NjFIMTMuNjkxNEMxMy44ODc4IDEyLjk2MSAxNC4wNzUgMTIuODc3NiAxNC4yMDY0IDEyLjczMTVMMTcuMDIzMiA5LjYwMDE4QzE3LjIyNzIgOS4zNzM0MiAxNy4yNTMzIDkuMDQyMTIgMTcuMTI5MSA4Ljc2MzU0QzE2Ljg5ODggOC4yNDcwNSAxNi43NzA4IDcuNjc0OTQgMTYuNzcwOCA3LjA3Mjk0QzE2Ljc3MDggNC43Nzc1IDE4LjYzMTYgMi45MTY2OSAyMC45MjcxIDIuOTE2NjlDMjMuMjIyNSAyLjkxNjY5IDI1LjA4MzMgNC43Nzc1IDI1LjA4MzMgNy4wNzI5NFpNMjMuMDA1MiA3LjA3Mjk0QzIzLjAwNTIgOC4yMjA2NSAyMi4wNzQ4IDkuMTUxMDYgMjAuOTI3MSA5LjE1MTA2QzE5Ljc3OTQgOS4xNTEwNiAxOC44NDg5IDguMjIwNjUgMTguODQ4OSA3LjA3Mjk0QzE4Ljg0ODkgNS45MjUyMiAxOS43Nzk0IDQuOTk0ODEgMjAuOTI3MSA0Ljk5NDgxQzIyLjA3NDggNC45OTQ4MSAyMy4wMDUyIDUuOTI1MjIgMjMuMDA1MiA3LjA3Mjk0Wk05LjE1MTAzIDE0QzkuMTUxMDMgMTUuMTQ3NyA4LjIyMDYyIDE2LjA3ODEgNy4wNzI5MSAxNi4wNzgxQzUuOTI1MTkgMTYuMDc4MSA0Ljk5NDc4IDE1LjE0NzcgNC45OTQ3OCAxNEM0Ljk5NDc4IDEyLjg1MjMgNS45MjUxOSAxMS45MjE5IDcuMDcyOTEgMTEuOTIxOUM4LjIyMDYyIDExLjkyMTkgOS4xNTEwMyAxMi44NTIzIDkuMTUxMDMgMTRaTTIwLjkyNzEgMjMuMDA1MkMyMi4wNzQ4IDIzLjAwNTIgMjMuMDA1MiAyMi4wNzQ4IDIzLjAwNTIgMjAuOTI3MUMyMy4wMDUyIDE5Ljc3OTQgMjIuMDc0OCAxOC44NDkgMjAuOTI3MSAxOC44NDlDMTkuNzc5NCAxOC44NDkgMTguODQ4OSAxOS43Nzk0IDE4Ljg0ODkgMjAuOTI3MUMxOC44NDg5IDIyLjA3NDggMTkuNzc5NCAyMy4wMDUyIDIwLjkyNzEgMjMuMDA1MloiIGNsaXAtcnVsZT0iZXZlbm9kZCIgZmlsbC1ydWxlPSJldmVub2RkIi8+JiN4YTs8L3N2Zz4=;" parent="1" vertex="1">
          <mxGeometry x="1101" y="-310" width="60" height="60" as="geometry" />
        </mxCell>
        <mxCell id="xZhcK2moglaW3ZBf0cYV-45" style="edgeStyle=none;shape=connector;rounded=1;orthogonalLoop=1;jettySize=auto;html=1;exitX=1;exitY=0.5;exitDx=0;exitDy=0;entryX=0;entryY=0.5;entryDx=0;entryDy=0;labelBackgroundColor=#FFFFFF;strokeColor=#7C8A9A;strokeWidth=2;fontFamily=VK Sans Display;fontSize=12;fontColor=#212121;startArrow=none;startFill=0;endArrow=none;endFill=0;" parent="1" source="aJi8j09or2nH_K_PCSjf-6" target="aJi8j09or2nH_K_PCSjf-11" edge="1">
          <mxGeometry relative="1" as="geometry" />
        </mxCell>
        <mxCell id="aJi8j09or2nH_K_PCSjf-11" value="" style="shape=image;verticalLabelPosition=bottom;labelBackgroundColor=default;verticalAlign=top;aspect=fixed;imageAspect=0;image=data:image/svg+xml,PHN2ZyB4bWxucz0iaHR0cDovL3d3dy53My5vcmcvMjAwMC9zdmciIGZpbGw9Im5vbmUiIHZpZXdCb3g9IjAgMCAyOCAyOCIgaGVpZ2h0PSIyOCIgd2lkdGg9IjI4Ij4mI3hhOzxwYXRoIGZpbGw9IiMwMDc3RkYiIGQ9Ik0yLjkxNjY2IDE0QzIuOTE2NjYgOC43NzUyNiAyLjkxNjY2IDYuMTYyODkgNC41Mzk3NyA0LjUzOTc3QzYuMTYyODkgMi45MTY2NiA4Ljc3NTI2IDIuOTE2NjYgMTQgMi45MTY2NkMxOS4yMjQ3IDIuOTE2NjYgMjEuODM3MSAyLjkxNjY2IDIzLjQ2MDIgNC41Mzk3N0MyNS4wODMzIDYuMTYyODkgMjUuMDgzMyA4Ljc3NTI2IDI1LjA4MzMgMTRDMjUuMDgzMyAxNS4xNjI2IDI1LjA2MDIgMTYuNDc3NiAyNS4wMzA4IDE3LjUzOThDMjUuMDE1OSAxOC4wNzU5IDI0LjU3NTYgMTguNSAyNC4wMzkzIDE4LjVDMjMuNDczMyAxOC41IDIzLjAxNDkgMTguMDI5MiAyMy4wMTIxIDE3LjQ2MzFDMjMuMDExMSAxNy4yNTUxIDIzLjAwOTIgMTcuMDM4NiAyMy4wMDczIDE2LjgyM0MyMy4wMDQgMTYuNDM5MiAyMy4wMDA3IDE2LjA1ODMgMjMuMDAyMyAxNS43MzM0QzIzLjAwNDIgMTUuMzUwMyAyMi42OTM2IDE1LjAzOTEgMjIuMzEwNiAxNS4wMzkxSDUuNjg5MzlDNS4zMDYzNCAxNS4wMzkxIDQuOTk1NzcgMTUuMzUwMyA0Ljk5NzY4IDE1LjczMzRDNS4wMDY0MiAxNy40ODQzIDUuMDQxMjIgMTguNzc4IDUuMTc5MTQgMTkuODAzOEM1LjM1MTA1IDIxLjA4MjQgNS42NDgxNCAyMS42Mjk3IDYuMDA5MjMgMjEuOTkwN0M2LjM3MDMxIDIyLjM1MTggNi45MTc1NSAyMi42NDg5IDguMTk2MTggMjIuODIwOEM4LjQ0NzY1IDIyLjg1NDYgOC43MTUyMSAyMi44ODIzIDkuMDAxNjUgMjIuOTA0OEM5LjU1ODQxIDIyLjk0ODYgMTAgMjMuNDAzMSAxMCAyMy45NjE2QzEwIDI0LjU1MTEgOS41MDk0IDI1LjAyNjQgOC45MjE1IDI0Ljk4MjZDNi44NjE1MyAyNC44Mjg4IDUuNTIwMTggMjQuNDQwNiA0LjUzOTc3IDIzLjQ2MDJDMi45MTY2NiAyMS44MzcxIDIuOTE2NjYgMTkuMjI0NyAyLjkxNjY2IDE0Wk0yMy4wMDIzIDEyLjI2NjZDMjMuMDA0MiAxMi42NDk2IDIyLjY5MzYgMTIuOTYwOSAyMi4zMTA2IDEyLjk2MDlINS42ODkzOUM1LjMwNjM0IDEyLjk2MDkgNC45OTU3NyAxMi42NDk2IDQuOTk3NjggMTIuMjY2NkM1LjAwNjQyIDEwLjUxNTYgNS4wNDEyMiA5LjIyMjAxIDUuMTc5MTQgOC4xOTYxOEM1LjM1MTA1IDYuOTE3NTUgNS42NDgxNCA2LjM3MDMxIDYuMDA5MjMgNi4wMDkyM0M2LjM3MDMxIDUuNjQ4MTQgNi45MTc1NSA1LjM1MTA1IDguMTk2MTggNS4xNzkxNEM5LjUzNDU5IDQuOTk5MiAxMS4zMjg5IDQuOTk0NzggMTQgNC45OTQ3OEMxNi42NzExIDQuOTk0NzggMTguNDY1NCA0Ljk5OTIgMTkuODAzOCA1LjE3OTE0QzIxLjA4MjQgNS4zNTEwNSAyMS42Mjk3IDUuNjQ4MTQgMjEuOTkwNyA2LjAwOTIzQzIyLjM1MTggNi4zNzAzMSAyMi42NDg5IDYuOTE3NTUgMjIuODIwOCA4LjE5NjE4QzIyLjk1ODggOS4yMjIwMSAyMi45OTM2IDEwLjUxNTYgMjMuMDAyMyAxMi4yNjY2Wk0xNS4xMjQgMjQuNjU4N0wxNi45MTQyIDIwLjQ0MjlDMTYuOTcyNSAyMC4zMTE2IDE3LjA2NzcgMjAuMTUwNSAxNy4yMzIzIDIwLjA0OTZDMTcuMzgzMiAxOS45NTUxIDE3LjU1MTMgMTkuOTI2MyAxNy43MDMyIDE5LjkyNjNDMTcuODM4OCAxOS45MjYzIDE3Ljk4NCAxOS45NTEgMTguMTE5NCAyMC4wMjM3QzE4LjI1NTkgMjAuMDk2OSAxOC4zNTkyIDIwLjIwNjYgMTguNDI3NCAyMC4zMzgxQzE4LjU2OTkgMjAuNTk1MyAxOC41NTExIDIwLjg3MSAxOC40NDA4IDIxLjExM0wxNS45MjI3IDI2Ljg4OTJDMTUuODU4NCAyNy4wMzYxIDE1Ljc2MjEgMjcuMTcwNSAxNS42MjYyIDI3LjI3MjRMMTUuNjIxMiAyNy4yNzYxQzE1LjQ2OTYgMjcuMzg2NCAxNS4yOTYyIDI3LjQyNTYgMTUuMTMyNSAyNy40MjU2QzE0Ljk2NDYgMjcuNDI1NiAxNC43OTgxIDI3LjM4MDkgMTQuNjUxNyAyNy4yNzgxQzE0LjUwODYgMjcuMTc3NiAxNC40MTA4IDI3LjA0MDEgMTQuMzQ1IDI2Ljg5NTJMMTQuMzQyNCAyNi44ODk2TDExLjg0NDcgMjEuMTc4QzExLjc0MTggMjAuOTI4MiAxMS42OTIxIDIwLjYyOSAxMS44MzIxIDIwLjM0ODhDMTEuOTg2NiAyMC4wMzk5IDEyLjI4MzMgMTkuOTI2MyAxMi41NzAzIDE5LjkyNjNDMTIuNzMzIDE5LjkyNjMgMTIuOTAxNCAxOS45NjI4IDEzLjA1MjMgMjAuMDYwNEMxMy4yMDQ1IDIwLjE1ODYgMTMuMzA3MyAyMC4yOTg0IDEzLjM3MTQgMjAuNDUxMkwxMy4zNzE4IDIwLjQ1MjFMMTUuMTI0IDI0LjY1ODdaTTIxLjI4OTUgMjQuMjEwMVYyNi41NTc0QzIxLjI4OTUgMjYuNzkwNCAyMS4yMDUzIDI3LjAwNTEgMjEuMDM3MSAyNy4xNzMzQzIwLjg2ODkgMjcuMzQxNSAyMC42NTQzIDI3LjQyNTYgMjAuNDIxMiAyNy40MjU2QzIwLjE4ODIgMjcuNDI1NiAxOS45NzM1IDI3LjM0MTUgMTkuODA1MyAyNy4xNzMzQzE5LjYzNzEgMjcuMDA1MSAxOS41NTMgMjYuNzkwNCAxOS41NTMgMjYuNTU3NFYyMC43OTQ2QzE5LjU1MyAyMC41NjQxIDE5LjYzMiAyMC4zNDMgMTkuODEwNCAyMC4xNzM1QzE5Ljk3NzkgMjAuMDA4OCAyMC4xOTA1IDE5LjkyNjMgMjAuNDIxMiAxOS45MjYzQzIwLjc1NzcgMTkuOTI2MyAyMS4wMjI3IDIwLjA5OTcgMjEuMTgyMyAyMC4zNzkxTDIxLjE4ODIgMjAuMzg5NUwyMy4zMzQyIDI0LjY4ODNMMjUuNDI0NCAyMC4zOTE0TDI1LjQzMTQgMjAuMzc5MUMyNS41OTExIDIwLjA5OTcgMjUuODU2MSAxOS45MjYzIDI2LjE5MjUgMTkuOTI2M0MyNi40MjMyIDE5LjkyNjMgMjYuNjM1OSAyMC4wMDg4IDI2LjgwMzMgMjAuMTczNkMyNi45ODE4IDIwLjM0MyAyNy4wNjA4IDIwLjU2NDEgMjcuMDYwOCAyMC43OTQ2VjI2LjU1NzRDMjcuMDYwOCAyNi43OTcxIDI2Ljk2ODggMjcuMDEyOCAyNi43OTUxIDI3LjE3ODFDMjYuNjMxOCAyNy4zMzkgMjYuNDIzNiAyNy40MjU2IDI2LjE5MjUgMjcuNDI1NkMyNS45NTk1IDI3LjQyNTYgMjUuNzQ0OCAyNy4zNDE1IDI1LjU3NjYgMjcuMTczM0MyNS40MDg0IDI3LjAwNTEgMjUuMzI0MyAyNi43OTA0IDI1LjMyNDMgMjYuNTU3NFYyNC4xNTg1TDI0LjA2MDUgMjYuNzM0M0wyNC4wNDYyIDI2Ljc1NjJDMjMuODgxMiAyNy4wMDg1IDIzLjYyNzEgMjcuMTcwMiAyMy4zMDY5IDI3LjE3MDJDMjMuMTQ0MyAyNy4xNzAyIDIyLjk4MDQgMjcuMTMxMiAyMi44MzM0IDI3LjAzNjJDMjIuNjg4MyAyNi45NDI1IDIyLjU4NiAyNi44MTE1IDIyLjUxNjUgMjYuNjY4OEwyMS4yODk1IDI0LjIxMDFaIiBjbGlwLXJ1bGU9ImV2ZW5vZGQiIGZpbGwtcnVsZT0iZXZlbm9kZCIvPiYjeGE7PC9zdmc+;" parent="1" vertex="1">
          <mxGeometry x="1511" y="-310" width="60" height="60" as="geometry" />
        </mxCell>
        <mxCell id="xZhcK2moglaW3ZBf0cYV-79" style="edgeStyle=none;shape=connector;rounded=1;orthogonalLoop=1;jettySize=auto;html=1;exitX=0.5;exitY=1;exitDx=0;exitDy=0;labelBackgroundColor=#FFFFFF;strokeColor=#7C8A9A;strokeWidth=2;fontFamily=VK Sans Display;fontSize=12;fontColor=#212121;startArrow=open;startFill=0;endArrow=open;endFill=0;" parent="1" source="aJi8j09or2nH_K_PCSjf-9" target="aJi8j09or2nH_K_PCSjf-9" edge="1">
          <mxGeometry relative="1" as="geometry" />
        </mxCell>
        <mxCell id="aJi8j09or2nH_K_PCSjf-10" value="&lt;font style=&quot;font-size: 20px;&quot;&gt;client_vpn_gw&lt;br&gt;172.16.0.5&lt;/font&gt;" style="text;html=1;strokeColor=none;fillColor=none;align=center;verticalAlign=middle;whiteSpace=wrap;rounded=0;fontSize=12;fontFamily=VK Sans Display;fontColor=#212121;" parent="1" vertex="1">
          <mxGeometry x="760" y="-240" width="130" height="50" as="geometry" />
        </mxCell>
        <mxCell id="xZhcK2moglaW3ZBf0cYV-13" value="&lt;font style=&quot;font-size: 20px;&quot;&gt;router_1234&lt;/font&gt;" style="text;html=1;strokeColor=none;fillColor=none;align=center;verticalAlign=middle;whiteSpace=wrap;rounded=0;fontSize=12;fontFamily=VK Sans Display;fontColor=#212121;" parent="1" vertex="1">
          <mxGeometry x="400" y="-693" width="110" height="40" as="geometry" />
        </mxCell>
        <mxCell id="xZhcK2moglaW3ZBf0cYV-80" value="&lt;font style=&quot;font-size: 20px;&quot;&gt;router_5678&lt;/font&gt;" style="text;html=1;strokeColor=none;fillColor=none;align=center;verticalAlign=middle;whiteSpace=wrap;rounded=0;fontSize=12;fontFamily=VK Sans Display;fontColor=#212121;" parent="1" vertex="1">
          <mxGeometry x="1076" y="-690" width="110" height="40" as="geometry" />
        </mxCell>
        <mxCell id="xZhcK2moglaW3ZBf0cYV-27" value="&lt;font style=&quot;font-size: 20px;&quot;&gt;vkcloudSubnet&lt;br style=&quot;&quot;&gt;10.0.0.0/29&lt;/font&gt;" style="text;html=1;strokeColor=none;fillColor=none;align=center;verticalAlign=middle;whiteSpace=wrap;rounded=0;fontSize=16;fontFamily=VK Sans Display;fontColor=#212121;" parent="1" vertex="1">
          <mxGeometry x="1056" y="-250" width="150" height="70" as="geometry" />
        </mxCell>
        <mxCell id="xZhcK2moglaW3ZBf0cYV-65" value="&lt;font color=&quot;#efae98&quot; style=&quot;font-size: 20px;&quot;&gt;192.0.2.100&lt;/font&gt;" style="text;html=1;strokeColor=none;fillColor=none;align=center;verticalAlign=middle;whiteSpace=wrap;rounded=0;fontSize=20;fontFamily=VK Sans Display;fontColor=#212121;rotation=306;" parent="1" vertex="1">
          <mxGeometry x="999" y="-607" width="109" height="40.01" as="geometry" />
        </mxCell>
        <mxCell id="p2B2HwedFYlzOvyGNuUa-1" value="" style="shape=image;verticalLabelPosition=bottom;labelBackgroundColor=default;verticalAlign=top;aspect=fixed;imageAspect=0;image=data:image/svg+xml,PHN2ZyB4bWxucz0iaHR0cDovL3d3dy53My5vcmcvMjAwMC9zdmciIGZpbGw9Im5vbmUiIHZpZXdCb3g9IjAgMCAzMiAzMiIgaGVpZ2h0PSIzMiIgd2lkdGg9IjMyIj4mI3hhOzxwYXRoIGZpbGw9IiMwMDc3RkYiIGQ9Ik0zLjMxNDI4IDE2QzMuMzE0MjggOC45OTM4NyA4Ljk5Mzg3IDMuMzE0MjggMTYgMy4zMTQyOEMyMy4wMDYxIDMuMzE0MjggMjguNjg1NyA4Ljk5Mzg3IDI4LjY4NTcgMTZDMjguNjg1NyAyMy4wMDYxIDIzLjAwNjEgMjguNjg1NyAxNiAyOC42ODU3QzguOTkzODcgMjguNjg1NyAzLjMxNDI4IDIzLjAwNjEgMy4zMTQyOCAxNlpNMTYgMS4yNTcxNEM3Ljg1Nzc0IDEuMjU3MTQgMS4yNTcxNCA3Ljg1Nzc0IDEuMjU3MTQgMTZDMS4yNTcxNCAyNC4xNDIzIDcuODU3NzQgMzAuNzQyOSAxNiAzMC43NDI5QzI0LjE0MjMgMzAuNzQyOSAzMC43NDI5IDI0LjE0MjMgMzAuNzQyOSAxNkMzMC43NDI5IDcuODU3NzQgMjQuMTQyMyAxLjI1NzE0IDE2IDEuMjU3MTRaTTE5LjUxNzMgNy4zMjYyNUMxOS44NzQzIDcuNjYxMSAxOS44ODgxIDguMjE3NTYgMTkuNTQ4MSA4LjU2OTE1QzE5LjIwOCA4LjkyMDczIDE4LjY0MjggOC45MzQzMSAxOC4yODU3IDguNTk5NDZMMTYuODkyOSA3LjUwMTgzVjE4LjkzMDRMMTYuODkyOCAxOC45MzlWMjQuNDk4MkwxOC4yODU3IDIzLjQwMDVDMTguNjQyOCAyMy4wNjU3IDE5LjIwOCAyMy4wNzkzIDE5LjU0OCAyMy40MzA5QzE5Ljg4ODEgMjMuNzgyNCAxOS44NzQzIDI0LjMzODkgMTkuNTE3MyAyNC42NzM3TDE2LjYxNTggMjcuMTg2MUMxNi4yNzA5IDI3LjUwOTQgMTUuNzI5MSAyNy41MDk0IDE1LjM4NDIgMjcuMTg2MUwxMi40ODI4IDI0LjY3MzdDMTIuMTI1NyAyNC4zMzg5IDEyLjExMTkgMjMuNzgyNCAxMi40NTIgMjMuNDMwOUMxMi43OTIgMjMuMDc5MyAxMy4zNTcyIDIzLjA2NTcgMTMuNzE0MyAyMy40MDA1TDE1LjEwNzEgMjQuNDk4MkwxNS4xMDcxIDEzLjA2OTZMMTUuMTA3MiAxMy4wNjA5VjcuNTAxODNMMTMuNzE0MyA4LjU5OTQ2QzEzLjM1NzIgOC45MzQzMSAxMi43OTIgOC45MjA3MyAxMi40NTIgOC41NjkxNUMxMi4xMTE5IDguMjE3NTYgMTIuMTI1NyA3LjY2MTEgMTIuNDgyOCA3LjMyNjI1TDE1LjM4NDMgNC44MTM5NUMxNS43MjkxIDQuNDkwNTkgMTYuMjcxIDQuNDkwNTkgMTYuNjE1OCA0LjgxMzk1TDE5LjUxNzMgNy4zMjYyNVpNMTAuMDk3NSAxOS45MTM4QzEwLjQ0OTEgMjAuMjUzOSAxMS4wMDU2IDIwLjI0MDEgMTEuMzQwNCAxOS44ODNMMTMuODUyNyAxNi45ODE2QzE0LjE3NjEgMTYuNjM2NyAxNC4xNzYxIDE2LjA5NDkgMTMuODUyNyAxNS43NUwxMS4zNDA0IDEyLjg0ODVDMTEuMDA1NiAxMi40OTE0IDEwLjQ0OTEgMTIuNDc3NyAxMC4wOTc1IDEyLjgxNzdDOS43NDU5NCAxMy4xNTc4IDkuNzMyMzYgMTMuNzIzIDEwLjA2NzIgMTQuMDgwMUwxMS4xNjQ4IDE1LjQ3MjlMNS40NTA1NCAxNS40NzI5QzQuOTY1MDIgMTUuNDcyOSA0LjU3MTQyIDE1Ljg3MjcgNC41NzE0MiAxNi4zNjU4QzQuNTcxNDIgMTYuODU4OSA0Ljk2NTAxIDE3LjI1ODcgNS40NTA1NCAxNy4yNTg3TDExLjE2NDggMTcuMjU4N0wxMC4wNjcyIDE4LjY1MTVDOS43MzIzNiAxOS4wMDg2IDkuNzQ1OTQgMTkuNTczNyAxMC4wOTc1IDE5LjkxMzhaTTIwLjY2MzQgMTIuODQ4NUMyMC45OTgyIDEyLjQ5MTQgMjEuNTU0NyAxMi40Nzc3IDIxLjkwNjMgMTIuODE3N0MyMi4yNTc5IDEzLjE1NzggMjIuMjcxNSAxMy43MjMgMjEuOTM2NiAxNC4wOEwyMC44MzkgMTUuNDcyOUgyNi41NTMzQzI3LjAzODggMTUuNDcyOSAyNy40MzI0IDE1Ljg3MjYgMjcuNDMyNCAxNi4zNjU4QzI3LjQzMjQgMTYuODU4OSAyNy4wMzg4IDE3LjI1ODYgMjYuNTUzMyAxNy4yNTg2SDIwLjgzOUwyMS45MzY2IDE4LjY1MTVDMjIuMjcxNSAxOS4wMDg2IDIyLjI1NzkgMTkuNTczNyAyMS45MDYzIDE5LjkxMzhDMjEuNTU0NyAyMC4yNTM5IDIwLjk5ODIgMjAuMjQwMSAyMC42NjM0IDE5Ljg4M0wxOC4xNTExIDE2Ljk4MTVDMTcuODI3NyAxNi42MzY3IDE3LjgyNzcgMTYuMDk0OCAxOC4xNTExIDE1Ljc1TDIwLjY2MzQgMTIuODQ4NVoiIGNsaXAtcnVsZT0iZXZlbm9kZCIgZmlsbC1ydWxlPSJldmVub2RkIi8+JiN4YTs8L3N2Zz4=;" vertex="1" parent="1">
          <mxGeometry x="436" y="-645" width="50" height="50" as="geometry" />
        </mxCell>
        <mxCell id="p2B2HwedFYlzOvyGNuUa-2" value="" style="shape=image;verticalLabelPosition=bottom;labelBackgroundColor=default;verticalAlign=top;aspect=fixed;imageAspect=0;image=data:image/svg+xml,PHN2ZyB4bWxucz0iaHR0cDovL3d3dy53My5vcmcvMjAwMC9zdmciIGZpbGw9Im5vbmUiIHZpZXdCb3g9IjAgMCAyOCAyOCIgaGVpZ2h0PSIyOCIgd2lkdGg9IjI4Ij4mI3hhOzxnIGNsaXAtcGF0aD0idXJsKCNjbGlwMF8xMjUyM18xMjIpIj4mI3hhOzxwYXRoIGZpbGw9IiMwMDc3RkYiIGQ9Ik0xNCAyNy42QzIxLjUxMTEgMjcuNiAyNy42IDIxLjUxMTEgMjcuNiAxNEMyNy42IDYuNDg4OTUgMjEuNTExMSAwLjQwMDAyNCAxNCAwLjQwMDAyNEM2LjQ4ODkyIDAuNDAwMDI0IDAuMzk5OTk0IDYuNDg4OTUgMC4zOTk5OTQgMTRDMC4zOTk5OTQgMjEuNTExMSA2LjQ4ODkyIDI3LjYgMTQgMjcuNlpNMjUuNSAxNEMyNS41IDIwLjM1MTMgMjAuMzUxMyAyNS41IDE0IDI1LjVDNy42NDg3MiAyNS41IDIuNDk5OTkgMjAuMzUxMyAyLjQ5OTk5IDE0QzIuNDk5OTkgNy42NDg3NSA3LjY0ODcyIDIuNTAwMDIgMTQgMi41MDAwMkMyMC4zNTEzIDIuNTAwMDIgMjUuNSA3LjY0ODc1IDI1LjUgMTRaTTEyIDEzLjQxOEMxMS4yNzA4IDEzLjQxOCAxMC44Mjk1IDEzLjQxOTMgMTAuNTAwNSAxMy40NDYyQzEwLjM0NjggMTMuNDU4OCAxMC4yNTY0IDEzLjQ3NDcgMTAuMjA2NCAxMy40ODY0QzEwLjE4MTcgMTMuNDkyMiAxMC4xNjggMTMuNDk2NyAxMC4xNjIxIDEzLjQ5ODhMMTAuMTU4OCAxMy41MDAxQzEwLjAxODIgMTMuNTcxOSA5LjkwMzkxIDEzLjY4NjIgOS44MzIxIDEzLjgyNjhMOS44MzA4NiAxMy44M0M5LjgyODcyIDEzLjgzNTkgOS44MjQxOSAxMy44NDk3IDkuODE4NDEgMTMuODc0NEM5LjgwNjY5IDEzLjkyNDMgOS43OTA4MSAxNC4wMTQ4IDkuNzc4MjUgMTQuMTY4NUM5Ljc1MTM3IDE0LjQ5NzUgOS43NSAxNC45Mzg4IDkuNzUgMTUuNjY4VjE2LjY2OEM5Ljc1IDE3LjM5NzEgOS43NTEzNyAxNy44Mzg0IDkuNzc4MjUgMTguMTY3NUM5Ljc5MDgxIDE4LjMyMTIgOS44MDY2OSAxOC40MTE2IDkuODE4NDEgMTguNDYxNkM5LjgyNDE5IDE4LjQ4NjIgOS44Mjg3MiAxOC41IDkuODMwODYgMTguNTA1OUw5LjgzMjEgMTguNTA5MkM5LjkwMzkxIDE4LjY0OTcgMTAuMDE4MiAxOC43NjQxIDEwLjE1ODggMTguODM1OUwxMC4xNjIxIDE4LjgzNzFDMTAuMTY4IDE4LjgzOTIgMTAuMTgxNyAxOC44NDM4IDEwLjIwNjQgMTguODQ5NkMxMC4yNTY0IDE4Ljg2MTMgMTAuMzQ2OCAxOC44NzcyIDEwLjUwMDUgMTguODg5N0MxMC44Mjk1IDE4LjkxNjYgMTEuMjcwOCAxOC45MTggMTIgMTguOTE4SDE2QzE2LjcyOTIgMTguOTE4IDE3LjE3MDUgMTguOTE2NiAxNy40OTk1IDE4Ljg4OTdDMTcuNjUzMiAxOC44NzcyIDE3Ljc0MzYgMTguODYxMyAxNy43OTM2IDE4Ljg0OTZDMTcuODE4MyAxOC44NDM4IDE3LjgzMiAxOC44MzkyIDE3LjgzNzkgMTguODM3MUwxNy44NDEyIDE4LjgzNTlDMTcuOTgxOCAxOC43NjQxIDE4LjA5NjEgMTguNjQ5NyAxOC4xNjc5IDE4LjUwOTJMMTguMTY5MSAxOC41MDU5QzE4LjE3MTMgMTguNSAxOC4xNzU4IDE4LjQ4NjIgMTguMTgxNiAxOC40NjE2QzE4LjE5MzMgMTguNDExNiAxOC4yMDkyIDE4LjMyMTIgMTguMjIxOCAxOC4xNjc1QzE4LjI0ODYgMTcuODM4NCAxOC4yNSAxNy4zOTcxIDE4LjI1IDE2LjY2OFYxNS42NjhDMTguMjUgMTQuOTM4OCAxOC4yNDg2IDE0LjQ5NzUgMTguMjIxOCAxNC4xNjg1QzE4LjIwOTIgMTQuMDE0OCAxOC4xOTMzIDEzLjkyNDMgMTguMTgxNiAxMy44NzQ0QzE4LjE3NTggMTMuODQ5NyAxOC4xNzEzIDEzLjgzNTkgMTguMTY5MSAxMy44M0wxOC4xNjc5IDEzLjgyNjhDMTguMDk2MSAxMy42ODYyIDE3Ljk4MTggMTMuNTcxOSAxNy44NDEyIDEzLjUwMDFMMTcuODM3OSAxMy40OTg4QzE3LjgzMiAxMy40OTY3IDE3LjgxODMgMTMuNDkyMiAxNy43OTM2IDEzLjQ4NjRDMTcuNzQzNiAxMy40NzQ3IDE3LjY1MzIgMTMuNDU4OCAxNy40OTk1IDEzLjQ0NjJDMTcuMTcwNSAxMy40MTkzIDE2LjcyOTIgMTMuNDE4IDE2IDEzLjQxOEgxMlpNNy43ODQ4OSAxNC4wMDU2QzcuODIwMjEgMTMuNTczMyA3Ljg5MjU0IDEzLjIyOCA4LjA0OTczIDEyLjkxOTVDOC4zMTMzOCAxMi40MDIgOC43MzQwOCAxMS45ODE0IDkuMjUxNTMgMTEuNzE3N0M5LjUzODUxIDExLjU3MTUgOS44NTc4NSAxMS40OTg1IDEwLjI1IDExLjQ2MDZWMTAuMTY4QzEwLjI1IDguMDk2OSAxMS45Mjg5IDYuNDE3OTcgMTQgNi40MTc5N0MxNi4wNzExIDYuNDE3OTcgMTcuNzUgOC4wOTY5IDE3Ljc1IDEwLjE2OFYxMS40NjA2QzE4LjE0MjEgMTEuNDk4NSAxOC40NjE1IDExLjU3MTUgMTguNzQ4NSAxMS43MTc3QzE5LjI2NTkgMTEuOTgxNCAxOS42ODY2IDEyLjQwMiAxOS45NTAzIDEyLjkxOTVDMjAuMTA3NSAxMy4yMjggMjAuMTc5OCAxMy41NzMzIDIwLjIxNTEgMTQuMDA1NkMyMC4yNSAxNC40MzI3IDIwLjI1IDE0Ljk2NjEgMjAuMjUgMTUuNjU2NFYxNS42NTY1VjE2LjY3OTRWMTYuNjc5NUMyMC4yNSAxNy4zNjk5IDIwLjI1IDE3LjkwMzMgMjAuMjE1MSAxOC4zMzAzQzIwLjE3OTggMTguNzYyNyAyMC4xMDc1IDE5LjEwNzkgMTkuOTUwMyAxOS40MTY0QzE5LjY4NjYgMTkuOTMzOSAxOS4yNjU5IDIwLjM1NDYgMTguNzQ4NSAyMC42MTgyQzE4LjQ0IDIwLjc3NTQgMTguMDk0NyAyMC44NDc4IDE3LjY2MjQgMjAuODgzMUMxNy4yMzUzIDIwLjkxOCAxNi43MDE5IDIwLjkxOCAxNi4wMTE2IDIwLjkxOEgxNi4wMTE0SDExLjk4ODVIMTEuOTg4NEMxMS4yOTgxIDIwLjkxOCAxMC43NjQ3IDIwLjkxOCAxMC4zMzc2IDIwLjg4MzFDOS45MDUzMSAyMC44NDc4IDkuNTYwMDMgMjAuNzc1NCA5LjI1MTUzIDIwLjYxODJDOC43MzQwOCAyMC4zNTQ2IDguMzEzMzggMTkuOTMzOSA4LjA0OTczIDE5LjQxNjRDNy44OTI1NCAxOS4xMDc5IDcuODIwMjEgMTguNzYyNyA3Ljc4NDg5IDE4LjMzMDNDNy43NSAxNy45MDMzIDcuNzUgMTcuMzY5OCA3Ljc1IDE2LjY3OTRWMTUuNjU2NUM3Ljc1IDE0Ljk2NjEgNy43NSAxNC40MzI3IDcuNzg0ODkgMTQuMDA1NlpNMTUuNzUgMTEuNDE4VjEwLjE2OEMxNS43NSA5LjIwMTQ3IDE0Ljk2NjUgOC40MTc5NyAxNCA4LjQxNzk3QzEzLjAzMzUgOC40MTc5NyAxMi4yNSA5LjIwMTQ3IDEyLjI1IDEwLjE2OFYxMS40MThIMTUuNzVaIiBjbGlwLXJ1bGU9ImV2ZW5vZGQiIGZpbGwtcnVsZT0iZXZlbm9kZCIvPiYjeGE7PC9nPiYjeGE7PGRlZnM+JiN4YTs8Y2xpcFBhdGggaWQ9ImNsaXAwXzEyNTIzXzEyMiI+JiN4YTs8cmVjdCBmaWxsPSJ3aGl0ZSIgaGVpZ2h0PSIyOCIgd2lkdGg9IjI4Ii8+JiN4YTs8L2NsaXBQYXRoPiYjeGE7PC9kZWZzPiYjeGE7PC9zdmc+;" vertex="1" parent="1">
          <mxGeometry x="800" y="-305" width="50" height="50" as="geometry" />
        </mxCell>
        <mxCell id="p2B2HwedFYlzOvyGNuUa-3" value="" style="shape=image;verticalLabelPosition=bottom;labelBackgroundColor=default;verticalAlign=top;aspect=fixed;imageAspect=0;image=data:image/svg+xml,PHN2ZyB4bWxucz0iaHR0cDovL3d3dy53My5vcmcvMjAwMC9zdmciIGZpbGw9Im5vbmUiIHZpZXdCb3g9IjAgMCAzMiAzMiIgaGVpZ2h0PSIzMiIgd2lkdGg9IjMyIj4mI3hhOzxwYXRoIGZpbGw9IiMwMDc3RkYiIGQ9Ik0zLjMxNDI4IDE2QzMuMzE0MjggOC45OTM4NyA4Ljk5Mzg3IDMuMzE0MjggMTYgMy4zMTQyOEMyMy4wMDYxIDMuMzE0MjggMjguNjg1NyA4Ljk5Mzg3IDI4LjY4NTcgMTZDMjguNjg1NyAyMy4wMDYxIDIzLjAwNjEgMjguNjg1NyAxNiAyOC42ODU3QzguOTkzODcgMjguNjg1NyAzLjMxNDI4IDIzLjAwNjEgMy4zMTQyOCAxNlpNMTYgMS4yNTcxNEM3Ljg1Nzc0IDEuMjU3MTQgMS4yNTcxNCA3Ljg1Nzc0IDEuMjU3MTQgMTZDMS4yNTcxNCAyNC4xNDIzIDcuODU3NzQgMzAuNzQyOSAxNiAzMC43NDI5QzI0LjE0MjMgMzAuNzQyOSAzMC43NDI5IDI0LjE0MjMgMzAuNzQyOSAxNkMzMC43NDI5IDcuODU3NzQgMjQuMTQyMyAxLjI1NzE0IDE2IDEuMjU3MTRaTTE5LjUxNzMgNy4zMjYyNUMxOS44NzQzIDcuNjYxMSAxOS44ODgxIDguMjE3NTYgMTkuNTQ4MSA4LjU2OTE1QzE5LjIwOCA4LjkyMDczIDE4LjY0MjggOC45MzQzMSAxOC4yODU3IDguNTk5NDZMMTYuODkyOSA3LjUwMTgzVjE4LjkzMDRMMTYuODkyOCAxOC45MzlWMjQuNDk4MkwxOC4yODU3IDIzLjQwMDVDMTguNjQyOCAyMy4wNjU3IDE5LjIwOCAyMy4wNzkzIDE5LjU0OCAyMy40MzA5QzE5Ljg4ODEgMjMuNzgyNCAxOS44NzQzIDI0LjMzODkgMTkuNTE3MyAyNC42NzM3TDE2LjYxNTggMjcuMTg2MUMxNi4yNzA5IDI3LjUwOTQgMTUuNzI5MSAyNy41MDk0IDE1LjM4NDIgMjcuMTg2MUwxMi40ODI4IDI0LjY3MzdDMTIuMTI1NyAyNC4zMzg5IDEyLjExMTkgMjMuNzgyNCAxMi40NTIgMjMuNDMwOUMxMi43OTIgMjMuMDc5MyAxMy4zNTcyIDIzLjA2NTcgMTMuNzE0MyAyMy40MDA1TDE1LjEwNzEgMjQuNDk4MkwxNS4xMDcxIDEzLjA2OTZMMTUuMTA3MiAxMy4wNjA5VjcuNTAxODNMMTMuNzE0MyA4LjU5OTQ2QzEzLjM1NzIgOC45MzQzMSAxMi43OTIgOC45MjA3MyAxMi40NTIgOC41NjkxNUMxMi4xMTE5IDguMjE3NTYgMTIuMTI1NyA3LjY2MTEgMTIuNDgyOCA3LjMyNjI1TDE1LjM4NDMgNC44MTM5NUMxNS43MjkxIDQuNDkwNTkgMTYuMjcxIDQuNDkwNTkgMTYuNjE1OCA0LjgxMzk1TDE5LjUxNzMgNy4zMjYyNVpNMTAuMDk3NSAxOS45MTM4QzEwLjQ0OTEgMjAuMjUzOSAxMS4wMDU2IDIwLjI0MDEgMTEuMzQwNCAxOS44ODNMMTMuODUyNyAxNi45ODE2QzE0LjE3NjEgMTYuNjM2NyAxNC4xNzYxIDE2LjA5NDkgMTMuODUyNyAxNS43NUwxMS4zNDA0IDEyLjg0ODVDMTEuMDA1NiAxMi40OTE0IDEwLjQ0OTEgMTIuNDc3NyAxMC4wOTc1IDEyLjgxNzdDOS43NDU5NCAxMy4xNTc4IDkuNzMyMzYgMTMuNzIzIDEwLjA2NzIgMTQuMDgwMUwxMS4xNjQ4IDE1LjQ3MjlMNS40NTA1NCAxNS40NzI5QzQuOTY1MDIgMTUuNDcyOSA0LjU3MTQyIDE1Ljg3MjcgNC41NzE0MiAxNi4zNjU4QzQuNTcxNDIgMTYuODU4OSA0Ljk2NTAxIDE3LjI1ODcgNS40NTA1NCAxNy4yNTg3TDExLjE2NDggMTcuMjU4N0wxMC4wNjcyIDE4LjY1MTVDOS43MzIzNiAxOS4wMDg2IDkuNzQ1OTQgMTkuNTczNyAxMC4wOTc1IDE5LjkxMzhaTTIwLjY2MzQgMTIuODQ4NUMyMC45OTgyIDEyLjQ5MTQgMjEuNTU0NyAxMi40Nzc3IDIxLjkwNjMgMTIuODE3N0MyMi4yNTc5IDEzLjE1NzggMjIuMjcxNSAxMy43MjMgMjEuOTM2NiAxNC4wOEwyMC44MzkgMTUuNDcyOUgyNi41NTMzQzI3LjAzODggMTUuNDcyOSAyNy40MzI0IDE1Ljg3MjYgMjcuNDMyNCAxNi4zNjU4QzI3LjQzMjQgMTYuODU4OSAyNy4wMzg4IDE3LjI1ODYgMjYuNTUzMyAxNy4yNTg2SDIwLjgzOUwyMS45MzY2IDE4LjY1MTVDMjIuMjcxNSAxOS4wMDg2IDIyLjI1NzkgMTkuNTczNyAyMS45MDYzIDE5LjkxMzhDMjEuNTU0NyAyMC4yNTM5IDIwLjk5ODIgMjAuMjQwMSAyMC42NjM0IDE5Ljg4M0wxOC4xNTExIDE2Ljk4MTVDMTcuODI3NyAxNi42MzY3IDE3LjgyNzcgMTYuMDk0OCAxOC4xNTExIDE1Ljc1TDIwLjY2MzQgMTIuODQ4NVoiIGNsaXAtcnVsZT0iZXZlbm9kZCIgZmlsbC1ydWxlPSJldmVub2RkIi8+JiN4YTs8L3N2Zz4=;" vertex="1" parent="1">
          <mxGeometry x="1106" y="-645" width="50" height="50" as="geometry" />
        </mxCell>
      </root>
    </mxGraphModel>
  </diagram>
</mxfile>
